<?xml version="1.0"?>
<svg xmlns="http://www.w3.org/2000/svg" viewBox="0 0 50 50">
    <path style="line-height:normal;text-indent:0;text-align:start;text-decoration-line:none;text-decoration-style:solid;text-decoration-color:#000;text-transform:none;block-progression:tb;isolation:auto;mix-blend-mode:normal" d="M 6 3 C 4.3545455 3 3 4.3545455 3 6 L 3 38.832031 A 1.0001 1.0001 0 0 0 3 39.158203 L 3 44 C 3 45.645455 4.3545455 47 6 47 L 44 47 C 45.645455 47 47 45.645455 47 44 L 47 39.167969 A 1.0001 1.0001 0 0 0 47 38.841797 L 47 6 C 47 4.3545455 45.645455 3 44 3 L 6 3 z M 6 5 L 44 5 C 44.554545 5 45 5.4454545 45 6 L 45 38 L 41.189453 38 C 41.175868 37.990264 41.163865 37.988744 41.113281 37.919922 C 40.972903 37.728931 40.776521 37.352755 40.605469 36.867188 C 40.263364 35.896054 40 34.485417 40 33 A 1.0001 1.0001 0 0 0 38 33 C 38 34.442473 37.758798 35.861595 37.427734 36.84375 C 37.262203 37.334828 37.068152 37.716298 36.927734 37.908203 C 36.872457 37.983749 36.855671 37.991039 36.845703 38 L 33.564453 38 C 33.470303 37.679137 33.358951 37.186572 33.251953 36.541016 C 33.025376 35.174002 32.807302 33.241572 32.621094 31.125 C 32.248676 26.891857 32 21.893503 32 19 A 1.0001 1.0001 0 0 0 30 19 C 30 21.842529 29.751356 26.841965 29.378906 31.087891 C 29.192681 33.210853 28.974723 35.152178 28.748047 36.527344 C 28.64082 37.177851 28.530056 37.676375 28.435547 38 L 23.673828 38 C 23.660268 37.9375 23.652492 37.92691 23.638672 37.853516 C 23.532286 37.288509 23.416112 36.413775 23.302734 35.333984 C 23.075982 33.174402 22.853383 30.182627 22.660156 26.941406 C 22.273703 20.458965 22 12.954167 22 9 A 1.0001 1.0001 0 0 0 20.957031 8.015625 A 1.0001 1.0001 0 0 0 20 9 C 20 12.903586 19.726306 20.407282 19.339844 26.902344 C 19.146613 30.149875 18.924047 33.15278 18.697266 35.320312 C 18.583875 36.40408 18.467795 37.283797 18.361328 37.851562 C 18.347378 37.925942 18.339862 37.936732 18.326172 38 L 15.474609 38 C 15.404508 37.825961 15.3226 37.608716 15.234375 37.267578 C 15.017487 36.428946 14.799719 35.213846 14.615234 33.910156 C 14.246265 31.302776 14 28.280952 14 27 A 1.0001 1.0001 0 0 0 12 27 C 12 28.280952 11.753735 31.302776 11.384766 33.910156 C 11.200281 35.213846 10.982513 36.428946 10.765625 37.267578 C 10.6774 37.608716 10.595496 37.825961 10.525391 38 L 5 38 L 5 6 C 5 5.4454545 5.4454545 5 6 5 z M 21 31.441406 C 21.10556 32.821263 21.200076 34.470308 21.3125 35.541016 C 21.428809 36.648725 21.547792 37.555241 21.673828 38.224609 C 21.736848 38.559294 21.796904 38.829224 21.886719 39.083984 C 21.931629 39.211364 21.975489 39.332769 22.087891 39.498047 C 22.200296 39.663324 22.462616 40 23 40 L 29 40 C 29.327083 40 29.595078 39.847357 29.748047 39.714844 C 29.901016 39.58233 29.982243 39.460406 30.048828 39.347656 C 30.181997 39.122156 30.253893 38.912953 30.328125 38.671875 C 30.476589 38.189719 30.599666 37.587808 30.720703 36.853516 C 30.824109 36.226189 30.903564 35.250317 30.998047 34.464844 C 31.093467 35.256782 31.17473 36.238251 31.279297 36.869141 C 31.400383 37.599697 31.523106 38.197659 31.671875 38.677734 C 31.746255 38.917772 31.819344 39.126548 31.953125 39.351562 C 32.020015 39.46407 32.10068 39.584974 32.253906 39.716797 C 32.407132 39.848619 32.675 40 33 40 L 37 40 C 37.733333 40 38.212684 39.538564 38.541016 39.089844 C 38.738882 38.819427 38.864379 38.454755 39.011719 38.121094 C 39.165246 38.46347 39.302243 38.833754 39.501953 39.105469 C 39.82095 39.539478 40.256481 40 41 40 L 45 40 L 45 44 C 45 44.554545 44.554545 45 44 45 L 6 45 C 5.4454545 45 5 44.554545 5 44 L 5 40 L 11 40 C 11.445833 40 11.756877 39.754981 11.925781 39.570312 C 12.094685 39.385644 12.188272 39.213232 12.275391 39.03125 C 12.449629 38.667286 12.577194 38.256465 12.703125 37.769531 C 12.816071 37.332807 12.899603 36.697592 13 36.164062 C 13.100397 36.697592 13.183929 37.332807 13.296875 37.769531 C 13.422806 38.256465 13.550371 38.667286 13.724609 39.03125 C 13.811729 39.213232 13.905315 39.385644 14.074219 39.570312 C 14.243123 39.754981 14.554167 40 15 40 L 19 40 C 19.539699 40 19.800104 39.661515 19.912109 39.496094 C 20.024115 39.330673 20.070447 39.209622 20.115234 39.082031 C 20.204804 38.82685 20.265148 38.554594 20.328125 38.21875 C 20.45408 37.547063 20.571203 36.63889 20.6875 35.527344 C 20.799233 34.459423 20.895029 32.815345 21 31.441406 z" font-weight="400" font-family="sans-serif" white-space="normal" overflow="visible"/>
</svg>
